<?xml version="1.0" encoding="UTF-8"?>
<svg width="78px" height="65px" viewBox="0 0 78 65" version="1.1" xmlns="http://www.w3.org/2000/svg" xmlns:xlink="http://www.w3.org/1999/xlink">
    <!-- Generator: Sketch 57.1 (83088) - https://sketch.com -->
    <title>map</title>
    <desc>Created with Sketch.</desc>
    <g id="Page-1" stroke="none" stroke-width="1" fill="none" fill-rule="evenodd">
        <g id="map" transform="translate(0.000000, -8.000000)" fill="#000000" fill-rule="nonzero">
            <g id="Group">
                <path d="M59.976,31.368 C59.808,31.606 60.828,32.102 59.409,32.13 C58.158,32.155 59.138,31.492 59.012,31.319 C50.481,22.756 56.283,20.149 57.739,19.692 C59.968,18.993 66.02,22.831 59.976,31.368 Z M60.398,23.116 C60.398,24.135 59.572,24.96 58.554,24.96 C57.535,24.96 56.71,24.134 56.71,23.116 C56.71,22.098 57.535,21.2729991 58.554,21.2729991 C59.572,21.272 60.398,22.097 60.398,23.116 Z" id="Shape"></path>
                <path d="M77.097,37.634 C75.025,36.244 66.028,30.164 63.589,28.529 C63.366,28.38 63.193,28.593 63.397,28.749 C63.422,28.769 76.522,37.955 76.522,37.955 C76.522,37.955 50.421,69.05 47.812,72.147 C44.627,70.13 17.184,52.379 5.618,44.855 C6.336,43.862 9.067,41.068 15.969,43.317 C15.996,43.308 16.108,42.77 15.477,42.696 C14.852,42.622 7.326,40.246 5.244,44.613 C2.315,42.707 0.497,41.515 0.508,41.506 C1.33,40.695 9.448,33.527 16.449,27.357 C16.655,27.374 29.021,28.637 32.511,28.153 C35.862,27.688 44.168,18.821 45.548,16.99 C48.527,18.724 51.65,20.587 51.779,20.903 C52.01,21.471 52.415,30.871 53.541,32.854 C54.709,34.913 61.665,45.894 60.815,46.682 C59.966,47.471 57.114,47.24 55.992,47.083 C55.876,47.065 55.806,47.444 55.924,47.47 C56.711,47.643 59.454,49.027 61.088,47.055 C62.72,45.083 55,34.8 54.041,32.103 C53.15,29.599 51.975,20.903 52.678,21.365 C52.807,21.451 53.537,21.543 53.399,21.4 C53.343,21.344 41.164,13.786 40.496,13.453 C40.376,13.393 40.223,13.662 40.321,13.795 C40.351,13.837 42.58,15.232 45.158,16.73 C43.706,18.413 34.717,26.621 32.678,27.207 C30.584,27.809 17.54,27.22 16.648,27.181 C21.941,22.516 26.545,18.467 26.788,18.242 C26.858,18.177 26.597,17.885 26.526,17.947 C25.163,19.146 0.114,41.595 0.00896024551,41.704 C-0.041,41.755 47.09,72.835 47.95,72.865 C47.991,72.866 77.141,38.418 77.141,38.418 C77.141,38.418 77.446,37.867 77.097,37.634 Z" id="Path"></path>
                <path d="M41.479,48.393 C40.923,48.226 37.251,52.9 29.685,47.058 C29.489,46.952 29.169,46.469 29.017,46.28 C29.22,46.337 36.361,51.676 41.813,47.448 C41.934,47.47 41.518,48.405 41.479,48.393 Z" id="Path"></path>
                <path d="M49.968,53.021 C49.713,53.382 51.263,54.137 49.108,54.18 C47.205,54.217 48.694,53.208 48.502,52.947 C35.534,39.928 44.352,35.965 46.565,35.271 C49.957,34.209 59.157,40.042 49.968,53.021 Z M50.564,40.649 C50.564,42.267 49.252,43.579 47.636,43.579 C46.018,43.579 44.707,42.267 44.707,40.649 C44.707,39.033 46.018,37.721 47.636,37.721 C49.253,37.722 50.564,39.033 50.564,40.649 Z" id="Shape"></path>
                <path d="M25.032,48.29 C24.816,48.596 26.126,49.233 24.304,49.269 C22.697,49.299 23.954,48.449 23.793,48.227 C12.836,37.229 20.286,33.879 22.157,33.293 C25.022,32.396 32.794,37.324 25.032,48.29 Z M25.293,37.794 C25.293,39.031 24.289,40.036 23.052,40.036 C21.813,40.036 20.81,39.031 20.81,37.794 C20.81,36.557 21.813,35.553 23.052,35.553 C24.29,35.553 25.293,36.557 25.293,37.794 Z" id="Shape"></path>
                <path d="M34.953,22.144 C34.754,22.425 35.958,23.011 34.284,23.044 C32.806,23.074 33.963,22.291 33.814,22.087 C23.745,11.98 30.591,8.901 32.311,8.363 C34.945,7.539 42.087,12.066 34.953,22.144 Z M35.272,12.63 C35.272,13.869 34.268,14.872 33.031,14.872 C31.792,14.872 30.789,13.869 30.789,12.63 C30.789,11.393 31.792,10.389 33.031,10.389 C34.269,10.39 35.272,11.393 35.272,12.63 Z" id="Shape"></path>
            </g>
        </g>
    </g>
</svg>